<svg id="Layer_1" enable-background="new 0 0 256 256" height="512" viewBox="0 0 256 256" width="512" xmlns="http://www.w3.org/2000/svg"><g><g><path d="m236 214.833h-216c-6.627 0-12-5.373-12-12v-128c0-6.627 5.373-12 12-12h216c6.627 0 12 5.373 12 12v128c0 6.628-5.373 12-12 12z" fill="#4671c6"/></g><g><path d="m248 89.421v-14.588c0-6.627-5.373-12-12-12h-216c-6.627 0-12 5.373-12 12v14.587h240z" fill="#e0ebfc"/></g><g><path d="m8 188.246v14.587c0 6.627 5.373 12 12 12h216c6.627 0 12-5.373 12-12v-14.587z" fill="#e0ebfc"/></g><g><circle cx="128" cy="138.833" fill="#a4c9ff" r="63.412"/></g><g><circle cx="128" cy="138.833" fill="#e0ebfc" r="49.413"/></g><g><circle cx="128" cy="138.833" fill="#4671c6" r="42.413"/></g><g><circle cx="128.329" cy="138.504" fill="#a4c9ff" r="21.971"/></g><g><circle cx="143.404" cy="123.429" fill="#e0ebfc" r="12.825"/></g><g><circle cx="37.75" cy="85.333" fill="#f9a7a7" r="8.82"/></g><g><path d="m230.167 97.033h-31c-2.209 0-4-1.791-4-4v-15.4c0-2.209 1.791-4 4-4h31c2.209 0 4 1.791 4 4v15.4c0 2.209-1.791 4-4 4z" fill="#f9cfcf"/></g><g><path d="m85.273 43.945-16.273 18.888h118l-16.273-18.888c-1.52-1.764-3.733-2.778-6.061-2.778h-73.332c-2.328 0-4.541 1.014-6.061 2.778z" fill="#e0ebfc"/></g><g><path d="m98.892 54.325 3.349-5.667c.18-.304.507-.491.861-.491h49.796c.354 0 .681.187.861.491l3.349 5.667c.394.667-.087 1.509-.861 1.509h-56.494c-.775-.001-1.255-.843-.861-1.509z" fill="#a4c9ff"/></g><g><path d="m58.667 62.833h-33.167v-9.333c0-1.657 1.343-3 3-3h27.167c1.657 0 3 1.343 3 3z" fill="#a4c9ff"/></g><g><path d="m225.333 62.833h-21.333v-7.833c0-1.657 1.343-3 3-3h15.333c1.657 0 3 1.343 3 3z" fill="#a4c9ff"/></g><g><path d="m229.337 205.5h-29.34c-2.668 0-4.83-2.162-4.83-4.83v-.007c0-2.668 2.162-4.83 4.83-4.83h29.34c2.668 0 4.83 2.162 4.83 4.83v.007c0 2.668-2.163 4.83-4.83 4.83z" fill="#a4c9ff"/></g><g><path d="m236 216.833h-216c-7.72 0-14-6.28-14-14v-128c0-7.72 6.28-14 14-14h216c7.72 0 14 6.28 14 14v128c0 7.72-6.28 14-14 14zm-216-152c-5.514 0-10 4.486-10 10v128c0 5.514 4.486 10 10 10h216c5.514 0 10-4.486 10-10v-128c0-5.514-4.486-10-10-10z" fill="#3762cc"/></g><g><path d="m128 204.246c-36.069 0-65.413-29.344-65.413-65.412 0-36.069 29.344-65.413 65.413-65.413s65.413 29.344 65.413 65.413c0 36.068-29.344 65.412-65.413 65.412zm0-126.825c-33.863 0-61.413 27.55-61.413 61.413s27.55 61.412 61.413 61.412 61.413-27.549 61.413-61.412-27.55-61.413-61.413-61.413z" fill="#3762cc"/></g><g><path d="m128 190.246c-28.349 0-51.413-23.063-51.413-51.413s23.064-51.412 51.413-51.412 51.413 23.063 51.413 51.413-23.064 51.412-51.413 51.412zm0-98.825c-26.144 0-47.413 21.269-47.413 47.413s21.269 47.413 47.413 47.413 47.413-21.269 47.413-47.413-21.269-47.413-47.413-47.413z" fill="#3762cc"/></g><g><path d="m230.167 99.033h-31c-3.309 0-6-2.691-6-6v-15.4c0-3.309 2.691-6 6-6h31c3.309 0 6 2.691 6 6v15.4c0 3.309-2.692 6-6 6zm-31-23.4c-1.103 0-2 .897-2 2v15.4c0 1.103.897 2 2 2h31c1.103 0 2-.897 2-2v-15.4c0-1.103-.897-2-2-2z" fill="#3762cc"/></g><g><path d="m187 64.833h-118c-.782 0-1.492-.456-1.818-1.167s-.208-1.546.303-2.139l16.273-18.887c1.902-2.207 4.664-3.473 7.576-3.473h73.332c2.913 0 5.674 1.266 7.576 3.473l16.273 18.889c.51.592.629 1.428.303 2.139-.326.71-1.036 1.165-1.818 1.165zm-113.637-4h109.274l-13.425-15.583c-1.141-1.324-2.798-2.083-4.546-2.083h-73.332c-1.748 0-3.405.76-4.546 2.084z" fill="#3762cc"/></g><g><path d="m156.248 57.833h-56.496c-1.075 0-2.073-.58-2.605-1.514-.533-.934-.524-2.088.023-3.013l3.35-5.667c.539-.91 1.528-1.474 2.583-1.474h49.796c1.055 0 2.044.564 2.582 1.472l3.351 5.668c.547.925.556 2.079.023 3.013-.534.935-1.533 1.515-2.607 1.515zm-55.634-2.493-.001.002c.001 0 .001-.001.001-.002zm-1.722-1.015h.01zm2.613-.492h52.989l-2.167-3.667h-48.654z" fill="#3762cc"/></g><g><path d="m58.667 64.833h-33.167c-1.104 0-2-.896-2-2v-9.333c0-2.757 2.243-5 5-5h27.167c2.757 0 5 2.243 5 5v9.333c0 1.105-.896 2-2 2zm-31.167-4h29.167v-7.333c0-.551-.449-1-1-1h-27.167c-.551 0-1 .449-1 1z" fill="#3762cc"/></g><g><path d="m225.333 64.833h-21.333c-1.104 0-2-.896-2-2v-7.833c0-2.757 2.243-5 5-5h15.333c2.757 0 5 2.243 5 5v7.833c0 1.105-.895 2-2 2zm-19.333-4h17.333v-5.833c0-.551-.449-1-1-1h-15.333c-.551 0-1 .449-1 1z" fill="#3762cc"/></g><g><path d="m229.336 207.5h-29.34c-3.766 0-6.83-3.064-6.83-6.83 0-3.772 3.064-6.836 6.83-6.836h29.34c3.766 0 6.83 3.064 6.83 6.83.001 3.772-3.063 6.836-6.83 6.836zm-29.339-9.667c-1.561 0-2.83 1.27-2.83 2.83 0 1.567 1.27 2.836 2.83 2.836h29.34c1.561 0 2.83-1.27 2.83-2.83 0-1.567-1.27-2.836-2.83-2.836z" fill="#3762cc"/></g><g><path d="m128 183.246c-24.489 0-44.413-19.924-44.413-44.413s19.923-44.412 44.413-44.412 44.413 19.923 44.413 44.412-19.924 44.413-44.413 44.413zm0-84.825c-22.284 0-40.413 18.129-40.413 40.412 0 22.284 18.129 40.413 40.413 40.413s40.413-18.129 40.413-40.413c0-22.283-18.129-40.412-40.413-40.412z" fill="#3762cc"/></g><g><path d="m37.75 96.153c-5.966 0-10.82-4.854-10.82-10.82s4.854-10.82 10.82-10.82 10.82 4.854 10.82 10.82-4.854 10.82-10.82 10.82zm0-17.64c-3.76 0-6.82 3.06-6.82 6.82s3.06 6.82 6.82 6.82 6.82-3.06 6.82-6.82-3.06-6.82-6.82-6.82z" fill="#3762cc"/></g></g></svg>